<?xml version="1.0" encoding="UTF-8"?>
<svg width="62" height="62" viewBox="0 0 62 62" fill="none" version="1.1" xmlns="http://www.w3.org/2000/svg" xmlns:xlink="http://www.w3.org/1999/xlink">
<path d="M40.4826 58.0844C37.4353 58.0844 34.4564 57.1807 31.9227 55.4877C29.389 53.7947 27.4142 51.3884 26.248 48.5731C25.0819 45.7578 24.7768 42.6599 25.3713 39.6711C25.9657 36.6824 27.4332 33.937 29.5879 31.7823C31.7427 29.6275 34.488 28.1601 37.4768 27.5656C40.4655 26.9711 43.5634 27.2762 46.3788 28.4424C49.1941 29.6085 51.6004 31.5833 53.2934 34.117C54.9864 36.6508 55.89 39.6296 55.89 42.6769C55.89 46.7632 54.2667 50.6822 51.3773 53.5716C48.4878 56.4611 44.5689 58.0844 40.4826 58.0844ZM40.4826 31.1214C38.1971 31.1214 35.963 31.7991 34.0627 33.0689C32.1624 34.3386 30.6813 36.1433 29.8067 38.2548C28.9321 40.3663 28.7032 42.6898 29.1491 44.9313C29.595 47.1729 30.6955 49.2319 32.3116 50.848C33.9277 52.464 35.9867 53.5646 38.2282 54.0105C40.4698 54.4563 42.7932 54.2275 44.9047 53.3529C47.0162 52.4783 48.821 50.9972 50.0907 49.0969C51.3604 47.1966 52.0382 44.9624 52.0382 42.6769C52.0382 39.6122 50.8207 36.673 48.6536 34.5059C46.4865 32.3388 43.5473 31.1214 40.4826 31.1214Z" fill="white"/>
<path d="M43.5448 48.4546L38.5566 43.4665V34.9731H42.4085V41.8872L46.2603 45.7391L43.5448 48.4546Z" fill="white"/>
<path d="M53.9639 11.8624C53.9639 10.8408 53.5581 9.86109 52.8357 9.13872C52.1134 8.41636 51.1336 8.01054 50.1121 8.01054H42.4084V4.15869H38.5565V8.01054H23.1491V4.15869H19.2973V8.01054H11.5936C10.572 8.01054 9.59224 8.41636 8.86988 9.13872C8.14752 9.86109 7.7417 10.8408 7.7417 11.8624V50.3809C7.7417 51.4025 8.14752 52.3822 8.86988 53.1046C9.59224 53.8269 10.572 54.2328 11.5936 54.2328H19.2973V50.3809H11.5936V11.8624H19.2973V15.7142H23.1491V11.8624H38.5565V15.7142H42.4084V11.8624H50.1121V23.418H53.9639V11.8624Z" fill="white"/>
</svg>
